<svg width="100" height="100" viewBox="0 0 100 100" fill="none" xmlns="http://www.w3.org/2000/svg">
<path d="M31.0128 22.2917C33.6753 22.2917 36.1378 22.5 38.3878 23.1167C40.642 23.5292 42.4878 24.3542 44.1253 25.3834C45.767 26.4139 46.9962 27.857 47.8128 29.7125C48.6337 31.5667 49.0462 33.8375 49.0462 36.3084C49.0462 39.1959 48.4295 41.6667 46.9962 43.5209C45.767 45.3792 43.717 47.025 41.2587 48.2625C44.742 49.2959 47.4045 51.15 49.0462 53.6209C50.6878 56.0917 51.7087 59.1875 51.7087 62.6917C51.7087 65.5792 51.092 68.05 50.067 70.1125C49.0462 72.175 47.4045 74.0292 45.5587 75.2667C43.5528 76.5916 41.3366 77.5666 39.0045 78.15C36.5462 78.7709 34.0878 79.1834 31.6295 79.1834H4.16699V22.2917H31.0128ZM29.3712 45.375C31.6253 45.375 33.4712 44.7584 34.9045 43.7292C36.3378 42.7 36.9545 40.8417 36.9545 38.575C36.9545 37.3375 36.7462 36.1 36.3378 35.2792C35.9295 34.4584 35.3128 33.8334 34.4962 33.2167C33.6611 32.7477 32.7631 32.4011 31.8295 32.1875C30.8045 31.9792 29.7837 31.9792 28.5503 31.9792H16.667V45.3792L29.3712 45.375ZM29.9878 69.7C31.217 69.7 32.4462 69.4917 33.4712 69.2875C34.4962 69.0792 35.5212 68.6709 36.3378 68.05C37.1695 67.4432 37.8673 66.6716 38.3878 65.7834C38.7962 64.7542 39.2087 63.5167 39.2087 62.075C39.2087 59.1875 38.3878 57.125 36.7503 55.6834C35.1087 54.4459 32.8545 53.8292 30.192 53.8292H16.667V69.7042L29.9878 69.7ZM69.5378 69.4917C71.1767 71.1417 73.635 71.9667 76.9128 71.9667C79.167 71.9667 81.217 71.35 82.8545 70.3209C84.4962 69.082 85.5211 67.8445 85.9295 66.6084H95.9712C94.3295 71.5542 91.8712 75.0584 88.5962 77.325C85.3128 79.3875 81.4212 80.625 76.7087 80.625C73.694 80.6295 70.705 80.0699 67.8962 78.975C65.3675 78.032 63.1136 76.474 61.3378 74.4417C59.4308 72.5473 58.0235 70.2094 57.242 67.6375C56.217 64.9584 55.8045 62.075 55.8045 58.775C55.8045 55.6834 56.217 52.8 57.242 50.1167C58.2252 47.5317 59.6852 45.1543 61.5462 43.1084C63.3878 41.2542 65.642 39.6084 68.1003 38.575C70.8369 37.4763 73.7598 36.916 76.7087 36.925C80.192 36.925 83.267 37.5459 85.9295 38.9875C88.5962 40.4292 90.642 42.0792 92.2795 44.5542C93.9212 46.8209 95.1545 49.5 95.9712 52.3875C96.3795 55.2709 96.5837 58.1584 96.3795 61.4542H66.667C66.667 64.7542 67.8962 67.8459 69.5378 69.4959M82.4462 47.8542C81.0128 46.4125 78.7587 45.5875 76.092 45.5875C74.5284 45.5641 72.9822 45.9171 71.5837 46.6167C70.3545 47.2375 69.5378 48.0625 68.717 48.8875C67.958 49.6811 67.4581 50.6867 67.2837 51.7709C67.0753 52.8042 66.8712 53.625 66.8712 54.45H85.3128C84.9045 51.3584 83.8795 49.3 82.4462 47.8542ZM64.4128 26.2084H87.3628V31.775H64.417L64.4128 26.2084Z" fill="black"/>
</svg>
